# xmcd CD database file
#
# Track frame offsets:
#	150
#	11367
#	22532
#	35841
#	49084
#	66276
#	83362
#	94923
#	106550
#	120964
#	135359
#	149888
#	164301
#	181336
#	198243
#	211802
#	225397
#	242352
#	259251
#	274942
#	290651
#
# Disc length: 3892 seconds
#
# Revision: 2
# Processed by: cddbd v1.5.1PL0 Copyright (c) Steve Scherf et al.
# Submitted via: CDex 1.51
#
DISCID=130f3215
DTITLE=Hal Leonard - Essential Jazz Classics - vol 12
DYEAR=1900
DGENRE=Jazz
TTITLE0=Airegin-split
TTITLE1=Airegin
TTITLE2=The Frim Fram Sauce-split
TTITLE3=The Frim Fram Sauce
TTITLE4=Ceora-split
TTITLE5=Ceora
TTITLE6=Israel-split
TTITLE7=Israel
TTITLE8=Milestones-split
TTITLE9=Milestones
TTITLE10=Nefertiti-split
TTITLE11=Nefertiti
TTITLE12=Red Clay-split
TTITLE13=Red Clay
TTITLE14=Take Five-split
TTITLE15=Take Five
TTITLE16=Satin Doll-split
TTITLE17=Satin Doll
TTITLE18=Song For My Father-split
TTITLE19=Song For My Father
TTITLE20=Bb Tuning Notes
EXTD=
EXTT0=
EXTT1=
EXTT2=
EXTT3=
EXTT4=
EXTT5=
EXTT6=
EXTT7=
EXTT8=
EXTT9=
EXTT10=
EXTT11=
EXTT12=
EXTT13=
EXTT14=
EXTT15=
EXTT16=
EXTT17=
EXTT18=
EXTT19=
EXTT20=
PLAYORDER=
